<svg height="500" viewBox="0 0 553 500" width="553" xmlns="http://www.w3.org/2000/svg" xmlns:xlink="http://www.w3.org/1999/xlink"><mask id="a" fill="#fff"><path d="m.00018406.00016782h55.29627204v45.31931078h-55.29627204z" fill="#fff" fill-rule="evenodd"/></mask><mask id="b" fill="#fff"><path d="m.00006814.33321699h34.71793976v46.00357051h-34.71793976z" fill="#fff" fill-rule="evenodd"/></mask><mask id="c" fill="#fff"><path d="m.00030103.03332245h46.47002577v40.82103535h-46.47002577z" fill="#fff" fill-rule="evenodd"/></mask><mask id="d" fill="#fff"><path d="m.49104704.13041069h65.13314056v24.24179891h-65.13314056z" fill="#fff" fill-rule="evenodd"/></mask><g fill="none" fill-rule="evenodd"><path d="m79.0105707 326.737256s-.2320658-.50228-.6421547-1.448557" stroke="#114aed" stroke-width=".5"/><path d="m77.1349702 322.367213c-6.8464715-16.639861-28.9902134-77.032077-7.3296771-115.471291 25.3153081-44.927519 110.3552459-109.5318883 68.8122849-176.4908253-53.0699568-85.5379782-47.0722739 72.4172523 36.546658 62.4458396 83.617872-9.9703531 53.418585-71.0089624 159.855203-81.2092619 106.435558-10.20135923 131.099175 102.8592016 163.038426 130.4750346 44.622336 38.583327 70.148517-27.336082-7.306365-22.496609-53.751319 3.359126-53.364542 44.431597-23.773501 100.272568 30.773623 58.075796-4.507799 105.152309-13.806327 116.009598" stroke="#114aed" stroke-dasharray="2.996 2.996" stroke-width=".5"/><path d="m452.122608 337.102015c-.686661.767195-1.076616 1.163508-1.076616 1.163508" stroke="#114aed" stroke-width=".5"/><path d="m67.9700657 146.504766 61.8630263-17.590377 13.679167 54.604346-68.7942702 14.101972z" fill="#ecb657"/><path d="m57.5001884 152.559035 57.0521636-29.69065 24.397641 50.730225-64.5439685 27.669875z" fill="#f3d58a"/><path d="m24.2175767 5.9653675c-.8234829-.97890698-2.3438722-1.37821154-5.2474772-1.37821154h-10.54006554c-2.97005765 0-4.51620376.4250614-5.33659581 1.46725661-.79986017 1.01614401-.79986017 2.51335213-.79986017 4.58552643v3.9495534c0 4.0144606.94902905 6.0527094 6.13645598 6.0527094h10.54013914c2.5179884 0 3.913273-.3523535 4.8159398-1.2162378.9257007-.885888 1.3206634-2.3323184 1.3206634-4.8364716v-3.9495534c0-2.18528361-.06189-3.69132265-.8891996-4.6745715zm-7.2778518 7.1946204-4.786209 2.5014304c-.1070013.0559292-.2240109.083673-.3408734.083673-.1323165 0-.2643387-.0356181-.3812747-.1064126-.2201842-.1334204-.3546349-.3720759-.3546349-.6294971v-4.9868179c0-.25697968.1340828-.4954144.3538254-.6289084.2198162-.13349401.4932066-.14261929.721265-.02413784l4.786209 2.48531394c.2435125.1264293.3964345.377816.3968029.6520896.0002939.2744942-.1519658.5262489-.3951103.6532669z" fill="#fff" fill-rule="nonzero" transform="matrix(.92718385 -.37460659 .37460659 .92718385 77.69407 156.280087)"/><path d="m428.705577 40.7958174 41.239898 18.8725675-20.645381 56.7798311-45.74028-15.232631z" fill="#114aed"/><path d="m438.727323 36.0371965 40.149507 21.0925578-23.709922 55.5696977-44.841686-17.7037613z" fill="#ece9de"/><path d="m433.441358 63.8107154h33.550459c.552285 0 1 .4477153 1 1v1.440367c0 .5522847-.447715 1-1 1h-33.550459c-.552284 0-1-.4477153-1-1v-1.440367c0-.5522847.447716-1 1-1z" fill="#dcd8c7" transform="matrix(.89879405 .43837115 -.43837115 .89879405 74.291455 -190.729845)"/><path d="m430.000991 71.8382384h33.550459c.552285 0 1 .4477152 1 1v1.4403669c0 .5522848-.447715 1-1 1h-33.550459c-.552284 0-1-.4477152-1-1v-1.4403669c0-.5522848.447716-1 1-1z" fill="#dcd8c7" transform="matrix(.89879405 .43837115 -.43837115 .89879405 77.462303 -188.409254)"/><path d="m427.256996 76.8494461h19.78899c.552285 0 1 .4477152 1 1v1.4403669c0 .5522848-.447715 1-1 1h-19.78899c-.552285 0-1-.4477152-1-1v-1.4403669c0-.5522848.447715-1 1-1z" fill="#dcd8c7" transform="matrix(.89879405 .43837115 -.43837115 .89879405 78.684992 -183.682886)"/><path d="m223.762528 26.5307631s28.522902 18.6140102 45.035604 2.1013084c0 0-7.498163 22.7254959-37.530024 23.7078019-9.507281.3115404-19.078141-7.7058569-19.078141-7.7058569z" fill="#ece9de"/><path d="m248.53211.61049441s9.942802 7.57022023 8.691342 27.58616229c-1.25146 20.0148823-25.955344 24.1433227-25.955344 24.1433227s43.535125 3.8147806 63.049847-33.215083z" fill="#dcd8c7"/><path d="m484.751698 190.127312s-28.03122 8.391458-37.615856-9.232828c0 0 .645333 20.547892 25.147881 28.669136 7.75778 2.570738 17.594616-1.703936 17.594616-1.703936z" fill="#ecb657"/><path d="m470.655236 162.741744s-10.033933 3.81584-13.877325 20.611472c-3.842331 16.794571 15.506024 26.210722 15.506024 26.210722s-36.795678-7.457897-43.858321-42.716006z" fill="#f3d58a"/><path d="m118.418314 296.325825h-118.41820803l12.69050353 70.888161h118.4182085z" fill="#114aed"/><path d="m13.6985593 367.21441h128.6820877l16.628205-100.20687h-30.385788l-14.441064 19.254046h-86.4492866z" fill="#eaeaea"/><path d="m25.7815507 10.1673193c.9834415.9761692 2.8815171.9633028 3.7463638-.0257328-1.2279033-.844708-2.6051689-.83519805-3.7463638.0257328zm-22.89214591 35.1521593c-.84470799-.7781383-.65898411-1.7912284-.6159096-2.7629223.35970016-8.1835981.72667263-16.3677557 1.0869322-24.5519132.03244574-.7233162.03244574-1.4483106.04475274-2.173305.03859924-2.1934437.03859924-2.1934437-2.02785858-3.0185724-.2472589-.098456-.54766167-.1342582-.73450437-.2992839-.27243231-.240546-.65730588-.5823451-.64263312-.8620497.0188918-.3468338.32265103-.8586932.63144494-.9834415 8.79335422-3.55336764 17.6001343-7.07205191 26.4175431-10.56612217.3720071-.14712464.90904-.13034236 1.2855225.01957932 8.748042 3.47057507 17.4871335 6.96296711 26.2116804 10.49060195.348512.1409711.7171627.6539494.749049 1.0214813.024614.2875364-.3960617.7747818-.7261132.9084806-8.7245469 3.5242784-17.4597225 7.0239428-26.211121 10.4833296-.456478.1806892-1.122175.1062878-1.5999105-.0811143-5.7764601-2.2706422-11.5355785-4.5860371-17.30085034-6.886328-.45088387-.1795704-.91295592-.3322891-1.57865295-.5739539.14208996 3.264153.27634818 6.353211.41116581 9.4428283.05873797.0050347.11803536.0100694.17677333.0156635.63716715-1.3520922 1.20328933-2.743343 1.92492725-4.0484449 1.4718058-2.6611098 1.5048109-2.6387335 4.250951-1.537816 3.9969792 1.6015887 8.0023495 3.1813605 11.9875811 4.8103602.7227568.2959275 1.3230029.3009622 2.0541509.0033565 4.7941373-1.9517789 9.6089729-3.8548892 14.5110763-5.8111434 2.1889684 2.733833 3.5997986 5.7999552 4.0920787 9.2643768.1443276 1.0147684-.4721414 1.2955918-1.4253748 1.2183934-5.9174312-.4766167-10.955471 1.4427164-15.098456 5.6718505-.7423361.7579995-1.3694339 1.6357127-2.0026852 2.4927277-.7434549 1.0058178-1.4824345 1.0226001-2.1984784.0117476-4.0339002-5.6942269-9.5105169-8.499105-16.522712-8.2194004-1.55963303.0620945-1.55907362.0777579-1.49697919 1.6603267.17117923 4.3410159.35858134 8.6820318.46263146 13.0252853.01454464.6063997-.40109644 1.2234281-.61702842 1.8354218z" fill="#b2b2b2" mask="url(#a)" opacity=".6" transform="translate(57.33945 306.192661)"/><path d="m511.731098 296.325825h-118.418208l12.690503 70.888161h118.418209z" fill="#114aed"/><path d="m407.011449 367.21441h128.682088l16.628204-100.20687h-30.385787l-14.441064 19.254046h-86.449287z" fill="#eaeaea"/><g fill="#c8c8c8" transform="matrix(.99939083 .0348995 -.0348995 .99939083 457.253062 305.600556)"><path d="m4.78026692 18.483458c.90016288-1.9134424 2.76999402-3.2626646 4.92193525-3.2626646 3.03302423 0 5.49092543 2.6098591 5.49092543 5.8289124v.8967558 9.5617604c0 1.1556974.9369598 2.0919758 2.0919758 2.0919758 1.1556974 0 2.0919758-.9362784 2.0919758-2.0919758v-9.5617604-.8967558c0-3.2190533 2.4585826-5.8289124 5.4909254-5.8289124 2.1274099 0 3.90593 1.1311661 4.8176772 3.0091744.9846596 1.9100352 1.5407027 4.0776492 1.5407027 6.3754155 0 7.6932921-6.2364048 13.9296968-13.9296969 13.9296968-7.69329211 0-13.93037827-6.2364047-13.93037827-13.9296968 0-2.1969153.50902473-4.2738998 1.41395759-6.1219253zm8.76653698-13.62169261h7.8220816v3.02348424c-1.2865311-.30459712-2.6296204-.46677636-4.0095068-.46677636-1.3096995 0-2.5853277.14650645-3.8125748.42112087zm21.1207785 21.25161211c.0340713-.4402007.0504255-.8858529.0504255-1.3355936 0-6.4830807-3.554996-12.135504-8.8203696-15.11673982v-4.79927869h5.6299362v-4.52875282h-28.16126517v4.52875282h5.65174179v4.68888778c-5.37440167 2.95057173-9.01798298 8.66296033-9.01798298 15.22713073 0 3.4786763 1.02350087 6.717491 2.7856668 9.4336524l-.00136285-.0006814c7.75189471 13.2414572 31.93363581 12.1014326 31.93363581 12.1014326v-21.5344036c0 .4497407-.0163542.8953929-.0504255 1.3355936z" mask="url(#b)" transform="translate(0 .348072)"/><path d="m10.0264925 29.9773999h-1.49300294c-.82111754 0-1.48618867-.6657525-1.48618867-1.4861886v-6.5410019c0-.8204361.66507113-1.4861887 1.48618867-1.4861887h1.49300294c.8204361 0 1.4861887.6657526 1.4861887 1.4861887v6.5410019c0 .8204361-.6657526 1.4861886-1.4861887 1.4861886"/><path d="m26.0599538 29.9773999h-1.4930029c-.8211176 0-1.4861887-.6657525-1.4861887-1.4861886v-6.5410019c0-.8204361.6650711-1.4861887 1.4861887-1.4861887h1.4930029c.8204361 0 1.4861887.6657526 1.4861887 1.4861887v6.5410019c0 .8204361-.6657526 1.4861886-1.4861887 1.4861886"/></g><path d="m482.042509 284.40367-2.604977 10.712234-8.107257-8.107258z" fill="#114aed" transform="matrix(-.81915204 .57357644 -.57357644 -.81915204 1033.364411 253.701027)"/><path d="m372.805265 282.057591c0 1.396634-21.2123 2.529412-47.377456 2.529412-26.166216 0-47.378516-1.132778-47.378516-2.529412 0-1.396633 21.2123-2.529411 47.378516-2.529411 26.165156 0 47.377456 1.132778 47.377456 2.529411" fill="#ebeae4"/><path d="m253.499272 463.335225 6.943961-35.720122 21.580002-2.480667-9.247664 45.792202z" fill="#d7d7d7"/><path d="m250.931819 472.697332 4.370043-21.286475h23.46408l-1.15715 4.59893h-1.347889l-2.97341 14.642399z" fill="#eaeaea"/><ellipse cx="227.06422" cy="497.133028" fill="#eaeaea" rx="68.807339" ry="2.866972"/><path d="m252.452963 464.720838-5.028093 18.05133h67.885081s-7.341333-29.636607-29.87821-11.555606h-2.276152l-7.328618-12.685345s-8.494244-.131258-11.515339 7.668908c-3.141895 8.117006-11.858669-1.479287-11.858669-1.479287" fill="#131d46"/><path d="m199.197248 488.220735 2.199857-43.134573h21.723056l-3.117524 44.908446z" fill="#d7d7d7"/><path d="m199.197248 482.813813.420685-21.043814 25.06099-.908129-.412209 4.208974-1.980507.84667-1.167746 12.120405-6.424727 8.736908z" fill="#eaeaea"/><path d="m252.698274 180.962938 31.37869 61.181663-15.635302 17.225854-31.456045-37.407103z" fill="#f3d58a"/><path d="m196.039987 180.962938s17.295791 5.666009 56.65797 0c0 0 3.177924 21.732593-2.981887 43.239478-2.528352 8.831218-7.095492 24.568247-2.056803 34.500453l-48.040804 6.650434s-3.876241-68.287752-3.578476-84.390365" fill="#f3d58a"/><path d="m253.513684 195.612967c-1.110525 8.94778-3.425885 20.444045-8.235688 31.591682-3.524433 8.168929-9.438403 21.798292-8.220852 32.965003l10.601911-1.466571c-5.038689-9.932206-.471549-25.670295 2.057862-34.501512 2.943739-10.278715 3.752261-20.604054 3.796767-28.588602" fill="#fff"/><path d="m213.484555 165.141453v20.814927l19.657776-.986545-9.654574-22.018702z" fill="#dd996b"/><path d="m212.023388 188.037025-1.025752-12.433006 22.144801-1.512137 1.459154 4.357327-3.269055.486385 4.720791 8.251582z" fill="#f3d58a"/><path d="m231.332218 178.93517-13.79785 1.016215 15.351313 1.699697z" fill="#fff"/><path d="m214.584589 168.59934 13.396238 4.59787-2.138396-4.877621z" fill="#b77548"/><path d="m226.742825 123.819855 20.916654 26.044355-9.753122 4.19414 4.876561 13.841295-28.198647.699377-8.7581-27.542716z" fill="#dd996b"/><path d="m239.175725 157.662788s-6.812563 4.089232-15.687226-1.47293" stroke="#3f3231" stroke-width=".5"/><path d="m223.74801 158.624218s-2.446758-3.069839 1.822618-3.59861" stroke="#3f3231" stroke-width=".5"/><path d="m228.397486 141.100388c1.019394 1.65837 1.105227 3.458734.190739 4.020355-.913428.56162-2.480667-.327436-3.501121-1.985806-1.018334-1.659429-1.104167-3.458734-.190739-4.020355.914488-.56162 2.481727.327436 3.501121 1.985806" fill="#240e1f"/><path d="m216.365562 156.518777-7.055225-16.655756s13.85931-10.343354 18.324723-14.931687c4.466472-4.588333 12.61627-19.853038-3.324158-15.644839-15.940427 4.208199-18.041652 11.452981-19.170191 11.452981s-19.836129 13.986175-17.838835 17.245692c1.997295 3.259517 21.557045 19.665327 21.557045 19.665327z" fill="#131d46"/><g fill="#114aed" transform="matrix(-.69465837 .7193398 .7193398 .69465837 203.139902 80.708955)"><path d="m13.0246218 35.9723446c-.1889267 1.3346991 11.708373-4.6464681 20.5375833-4.9499576 8.8292104-.3034896 18.9330767 3.5033584 18.9330767 3.5033584l-.3626311-10.530308s-9.6727555-4.6970839-19.1089449-4.3733617c-9.4330767.3206094-18.463057 5.8098788-18.463057 5.8098788-.8980668 6.1371273-1.4100758 9.6505907-1.536027 10.5403901z"/><path d="m60.2952736 20.9739269c-.873116.0311272-1.6061599-.6521133-1.637287-1.523673-.0295708-.873116.6567824-1.6046035 1.528342-1.6341743.8746724-.0311271 1.6046036.6536697 1.6341743 1.5252294.0311272.8715596-.650557 1.6030472-1.5252293 1.6326179zm.4684633-5.784977c.0046691.1260648.0171199.4746887.0342398.9836173l-2.0092562-1.025639c.7019168-.5011467 1.9314384-1.2046199 1.9750164.0420217zm1.8365006 5.9110419 3.6683323-2.1368774-3.806848-1.9407766-.0342398-.9820609s.8684469-5.3725426-5.016137-2.3765564c-.2972641.1774247-.4560124.3501802-.5167103.515154l-25.1289319-12.82749016-31.76523589 19.65833876 12.42750659 5.1390892-.0622543-1.8038172s10.0680701-6.1180374 20.5921527-6.4791121c10.5209698-.3610747 21.3034076 4.8776213 21.3034076 4.8776213l.1089449 3.1500655 6.631635-3.8613205c.1431848 4.2021626.4528998 13.1916776.5042595 14.6904489l-2.2489351.0778179.178981 5.2200196 2.9197248-2.1695609 3.3913008 1.9532274-.178981-5.2231324-2.4325852.0840432z" transform="translate(0 .205283)"/></g><path d="m214.274638 156.91774s-7.996204-5.827078-11.733629-4.513098c-3.15991 1.110525-1.579955 10.380442 2.707434 12.411813 4.28739 2.030311 14.538553 2.676704 9.026195-7.898715" fill="#dd996b"/><path d="m213.484555 160.109122 2.581335-2.31748-2.261317.255379-.051924-.459893 3.700337-.417507-2.551664 2.289928 2.573917-.331674.059341.458834z" fill="#3f3231"/><path d="m196.039987 180.962938-59.577337 43.862559 23.138764 10.363488 45.746638-18.716798z" fill="#f3d58a"/><path d="m173.660894 229.436719-37.198349-4.611646s13.412132 18.189086 33.650603 30.481157c21.332042 12.956479 22.794374 17.86483 22.794374 17.86483l-.602947 3.31568c-7.658172-.600828-6.00616 7.358288-6.00616 7.358288l-6.00722 5.556864c-4.204736-5.556864-11.561964-1.653072-11.561964-1.653072l13.964216 5.857808 16.067644-12.615268.857266-15.637421z" fill="#dd996b"/><path d="m173.660894 229.436719-21.112691-2.617363 29.497791 14.219595z" fill="#b77548"/><path d="m268.441556 259.370137s-2.390596-12.474332 0-31.554593c2.390596-19.080262 14.218535-24.838461 17.398579-53.723768l11.29387-5.492224-9.606889 76.17587z" fill="#dd996b"/><path d="m285.840665 174.09167 3.87836 2.103428-5.141477 6.249882z" fill="#b77548"/><g transform="matrix(.08715574 .9961947 -.9961947 .08715574 310.307063 127.375536)"><path d="m21.6427896 27.1815654-21.64248857-16.8775803s.24512615-5.58500574 3.83299886-8.87098625c3.58830275-3.28641055 5.58500573.24512615 5.58500573.24512615l18.95212158 19.3421732 18.0778383 9.8334289s.8360092 10.3679759-7.7567374 9.9908257z" fill="#dcd8c7" mask="url(#c)" transform="translate(0 .39676)"/><path d="m9.15043005 1.69412271s-3.97577409 8.80389909-6.421875 5.68305619l.35435779 1.73738532 34.52752296 27.34403668 6.7164564 2.596617c2.5118979-2.944094 2.1209862-7.8044725 2.1209862-7.8044725l-18.0778383-9.8338589-18.95169148-19.34174315s-.09116972-.16083716-.26791857-.38102064" fill="#c1bca8"/><path d="m21.6427896 27.5783257-2.4048165-1.87457s1.9241506-.1322728 3.4528383-2.3837442c1.5286876-2.2514715 2.0044438-5.6538131 2.0044438-5.6538131l2.6809059 2.7363819c-.2623623 2.3146789-.853102 4.0471903-1.772219 5.1975344-.9191171 1.150344-2.2395012 1.8097477-3.9611525 1.978211z" fill="#114aed"/></g><path d="m297.133687 168.59934 1.496242-8.352251-22.186129-9.577218-3.093151 15.351313 12.490228 8.07038z" fill="#dd996b"/><path d="m275.857172 153.581502 10.562703 5.530372" stroke="#3f3231" stroke-width=".5"/><path d="m275.036994 157.650919 9.03997 5.300426" stroke="#3f3231" stroke-width=".5"/><path d="m274.278488 162.380611 9.039971 5.300426" stroke="#3f3231" stroke-width=".5"/><path d="m249.123931 264.006155 55.295245 70.309586-16.719336 110.770633h-35.386329l14.337218-100.522648-61.302465-66.26168 30.303133-14.295891z" fill="#e0f4ee"/><path d="m271.665576 445.086056 13.45134-94.315152-61.302465-66.26168-18.465658-6.207496 61.301406 66.262739-14.336158 100.521589z" fill="#dfeae6"/><path d="m199.618463 265.353515-8.592793 187.73807h36.743755l9.069641-192.891203z" fill="#e0f4ee"/><path d="m234.487359 309.97511v-22.991471l5.797407-.708914" stroke="#dfeae6"/><path d="m199.618463 265.353515 48.040804-6.650434 1.464452 5.303604-49.505256 8.044949z" fill="#ece9de"/><path d="m2.76719948 6.32003184-2.27615244 18.05238966h65.13314056s-7.3423931-29.63660683-29.8782096-11.556666h-2.2761524l-7.3286175-12.68534481s-8.4953045-.13125842-11.5153392 7.6689083c-3.1418957 8.11700541-11.85866942-1.47928715-11.85866942-1.47928715" fill="#131d46" mask="url(#d)" transform="translate(196.037338 471.983969)"/><path d="m324.800807 209.634299h61.729509c1.850168 0 3.350649 1.50048 3.350649 3.350649v1.998521c0 1.850169-1.500481 3.350649-3.350649 3.350649h-61.729509c-1.850168 0-3.350649-1.50048-3.350649-3.350649v-1.998521c0-1.850169 1.500481-3.350649 3.350649-3.350649" fill="#fff"/><path d="m324.800807 209.634299h61.729509c1.850168 0 3.350649 1.50048 3.350649 3.350649v1.998521c0 1.850169-1.500481 3.350649-3.350649 3.350649h-61.729509c-1.850168 0-3.350649-1.50048-3.350649-3.350649v-1.998521c0-1.850169 1.500481-3.350649 3.350649-3.350649z" stroke="#114aed" stroke-width=".25"/><path d="m324.800807 209.634299h49.079272c1.851229 0 3.351709 1.50048 3.351709 3.350649v1.998521c0 1.850169-1.50048 3.350649-3.351709 3.350649h-49.079272c-1.850168 0-3.350649-1.50048-3.350649-3.350649v-1.998521c0-1.850169 1.500481-3.350649 3.350649-3.350649" fill="#114aed"/><path d="m382.900022 229.267068h-66.664351l-17.33076 42.784884h66.664351z" fill="#114aed"/><path d="m387.725932 229.267068h-66.664352l-17.33076 42.784884h66.664351z" fill="#2157f1"/><path d="m352.889567 249.795356c-.911309 3.399393-4.405012 6.155572-7.804406 6.155572-3.399393 0-5.416988-2.756179-4.505679-6.155572.911308-3.399394 4.406071-6.155573 7.805465-6.155573 3.399393 0 5.415929 2.756179 4.50462 6.155573z" stroke="#fff"/><path d="m278.049823 272.052376h94.755972v-5.44348h-94.755972z" fill="#114aed"/><path d="m278.049823 272.052376h27.713322v-5.44348h-27.713322z" fill="#114aed"/><path d="m392.893794 59.3404197c0 5.3396332-4.327657 9.6672899-9.66729 9.6672899-5.338574 0-9.66729-4.3276567-9.66729-9.6672899 0-5.3385735 4.328716-9.6672899 9.66729-9.6672899 5.339633 0 9.66729 4.3287164 9.66729 9.6672899" fill="#eaeaea"/><path d="m397.727015 189.725277c0 2.669287-2.163829 4.833115-4.833115 4.833115-2.669287 0-4.834175-2.163828-4.834175-4.833115s2.164888-4.834175 4.834175-4.834175c2.669286 0 4.833115 2.164888 4.833115 4.834175" fill="#eaeaea"/><path d="m49.4746317 201.373286c0 2.669286-2.1638283 4.834174-4.8341748 4.834174-2.6692868 0-4.8331151-2.164888-4.8331151-4.834174 0-2.669287 2.1638283-4.834175 4.8331151-4.834175 2.6703465 0 4.8341748 2.164888 4.8341748 4.834175" fill="#cfcfcf"/><path d="m193.812049 59.3404197c0 2.6692868-2.163828 4.8341748-4.834175 4.8341748-2.669287 0-4.833115-2.164888-4.833115-4.8341748s2.163828-4.8331151 4.833115-4.8331151c2.670347 0 4.834175 2.1638283 4.834175 4.8331151" fill="#cfcfcf"/><g fill="#114aed"><path d="m525.620491 112.385321-3.720471 15.29939-11.578919-11.578919z" transform="matrix(-1 0 0 -1 1035.941592 240.070032)"/><path d="m70.3452612 240.825688-3.7204708 15.29939-11.5789188-11.578919z" transform="matrix(-.97029573 -.2419219 .2419219 -.97029573 63.41717 504.737415)"/><path d="m73.7856284 285.550459-2.6049766 10.712234-8.1072573-8.107258z" transform="matrix(-.9998477 -.01745241 .01745241 -.9998477 131.77158 582.963105)"/><path d="m346.018028 11.6283697-13.449221 8.1880028v-16.37600553z"/><path d="m153.357478 44.8852505-13.449221 8.1880027v-16.3760055z" transform="matrix(.25881905 .96592583 -.96592583 .25881905 152.037311 -108.368381)"/></g><path d="m229.265667 185.172124-33.22568-4.208974s3.578476 10.240566 1.679563 33.021165c0 0 3.295547-15.524038 2.550605-29.093001z" fill="#fff"/></g></svg>